<svg xmlns="http://www.w3.org/2000/svg">
    <symbol id="addTransaction" viewBox="0 0 20 20">
      <path d="M10 0V20" stroke="white" stroke-width="2"/>
      <path d="M0 10L20 10" stroke="white" stroke-width="2"/>
    </symbol>
    <symbol id="closeTransactionModal" viewBox="0 0 18 18">
      <path d="M1 1L17 17" stroke="black"/>
      <path d="M1 17L17 0.999999" stroke="black"/>
    </symbol>
    <symbol id="transactionsDate" viewBox="0 0 24 24">
      <path d="M9 11H7V13H9V11ZM13 11H11V13H13V11ZM17 11H15V13H17V11ZM19 4H18V2H16V4H8V2H6V4H5C3.89 4 3.01 4.9 3.01 6L3 20C3 21.1 3.89 22 5 22H19C20.1 22 21 21.1 21 20V6C21 4.9 20.1 4 19 4ZM19 20H5V9H19V20Z"/>
    </symbol>
    <symbol id="selectInputIcon" viewBox="0 0 20 11" fill="none">
      <path d="M1 1L10 10L19 1" stroke="black"/>
    </symbol>
    <symbol id="checkboxSpendIcon" viewBox="0 0 20 2" fill="none">
      <path d="M0 1L20 0.999999" stroke="white" stroke-width="2"/>
    </symbol>
</svg>